# xmcd
#
# Track frame offsets:
#	150
#	14488
#	33267
#	48714
#	67324
#	79116
#	93208
#	107385
#	128868
#	144427
#	161979
#	179613
#	193781
#
# Disc length: 2743 seconds
#
# Revision: 0
# Processed by: cddbd v1.5.2PL0 Copyright (c) Steve Scherf et al.
# Submitted via: audiograbber 1.83.01
#
DISCID=b80ab50d
DTITLE=Various Artist - Colorado Bluegrass Music Society, Vol. 5 [CD2]
DYEAR=2009
DGENRE=Bluegrass
TTITLE0=Lonesome Traveler - Walkin' Shoes
TTITLE1=Aimee Hoyt - Golden Seeds
TTITLE2=The Hartmans - Ozark Rain
TTITLE3=Loose Canyon Bluegrass - Gospel Lullbye
TTITLE4=Quickdraw - Grand County Train
TTITLE5=String Tied - EFA Breakdown
TTITLE6=High Desert Bluegrass - Just One More Lie
TTITLE7=Horsetooth Mountain Rangers - Dew Drops In The Valley
TTITLE8=Steel Pennies - Kentucky
TTITLE9=Waiting On Trial - Take Me Back
TTITLE10=Jessum Buds - I Can't Complain
TTITLE11=Grass It Up - Eleanor's Song
TTITLE12=WhoYaSay - State Line Cafe
EXTD=
EXTT0=
EXTT1=
EXTT2=
EXTT3=
EXTT4=
EXTT5=
EXTT6=
EXTT7=
EXTT8=
EXTT9=
EXTT10=
EXTT11=
EXTT12=
PLAYORDER=
